<?xml version="1.0" standalone="no"?>
<!DOCTYPE svg PUBLIC "-//W3C//DTD SVG 1.1//EN" "http://www.w3.org/Graphics/SVG/1.1/DTD/svg11.dtd" >
<svg xmlns="http://www.w3.org/2000/svg">
<metadata>Generated by IcoMoon</metadata>
<defs>
<font id="icomoon" horiz-adv-x="1024">
<font-face units-per-em="1024" ascent="960" descent="-64" />
<missing-glyph horiz-adv-x="1024" />
<glyph unicode="&#x20;" horiz-adv-x="512" d="" />
<glyph unicode="&#xe901;" glyph-name="Calendar" horiz-adv-x="922" d="M263.782-64h-0.563c-3.443-0.161-7.48-0.252-11.538-0.252-69.653 0-133.001 26.997-180.151 71.098l0.149-0.138c-44.199 46.958-71.358 110.389-71.358 180.164 0 3.965 0.088 7.909 0.261 11.83l-0.020-0.558-0.563 426.342c-0.117 2.918-0.184 6.344-0.184 9.785 0 64.847 23.689 124.161 62.886 169.76l-0.29-0.345c42.822 44.868 101.816 73.977 167.591 77.944l0.703 0.034v38.4c-0.003 0.195-0.005 0.424-0.005 0.654 0 10.768 4.3 20.531 11.277 27.667l-0.007-0.007c7.056 6.867 16.704 11.101 27.341 11.101 21.66 0 39.219-17.559 39.219-39.219 0-0.051 0-0.102 0-0.152v0.008-35.84l300.288 0.41v35.891c-0.005 0.229-0.007 0.498-0.007 0.769 0 10.697 4.261 20.4 11.178 27.503l-0.008-0.009c7.056 6.867 16.704 11.101 27.341 11.101 21.66 0 39.219-17.559 39.219-39.219 0-0.015 0-0.030 0-0.044v0.002-38.4c66.86-3.163 126.501-31.687 169.993-76.091l0.043-0.044c40.099-44.94 64.604-104.545 64.604-169.874 0-3.009-0.052-6.007-0.155-8.991l0.012 0.433 0.563-431.411c0-160-100.403-259.584-262.554-259.789zM667.802 233.37c-23.025-0.679-41.431-19.506-41.431-42.632 0-0.33 0.004-0.659 0.011-0.988l-0.001 0.049c0.602-23.001 19.392-41.417 42.482-41.417 23.47 0 42.496 19.026 42.496 42.496s-19.026 42.496-42.496 42.496c-0.193 0-0.386-0.001-0.579-0.004h0.029zM251.75 233.37v0c-23.099-1.203-41.373-20.225-41.373-43.516 0-0.182 0.001-0.363 0.003-0.544v0.028c0.648-22.553 18.921-40.629 41.492-40.96h2.029c11.497 0.505 21.707 5.622 28.898 13.534l0.030 0.034c6.863 7.457 11.071 17.451 11.071 28.428 0 0.806-0.023 1.607-0.067 2.402l0.005-0.11c-0.374 22.702-18.865 40.961-41.62 40.961-0.11 0-0.22 0-0.329-0.001h0.017zM460.032 233.626v0c-23.12-1.311-41.371-20.379-41.371-43.71 0-0.131 0.001-0.262 0.002-0.393v0.020c0.651-22.606 19.009-40.713 41.653-40.96h1.867c22.303 1.205 39.932 19.584 39.932 42.080 0 0.705-0.017 1.405-0.051 2.101l0.004-0.098c-0.374 22.702-18.865 40.961-41.62 40.961-0.11 0-0.22 0-0.329-0.001h0.017zM251.494 417.587v0c-23.099-1.203-41.373-20.225-41.373-43.516 0-0.182 0.001-0.363 0.003-0.544v0.028c0.595-22.593 18.928-40.711 41.551-40.96h2.021c11.463 0.516 21.638 5.632 28.794 13.533l0.031 0.035c6.833 7.464 11.020 17.449 11.020 28.413 0 0.812-0.023 1.618-0.068 2.418l0.005-0.111c-0.345 22.696-18.825 40.961-41.57 40.961-0.11 0-0.219 0-0.329-0.001h0.017zM459.827 419.379v0c-23.122-1.176-41.424-20.21-41.424-43.518 0-0.181 0.001-0.361 0.003-0.541v0.027c0.651-22.623 19.038-40.741 41.707-40.96h1.864c22.289 1.287 39.877 19.677 39.877 42.174 0 0.672-0.016 1.339-0.047 2.003l0.003-0.094c-0.374 22.701-18.865 40.961-41.62 40.961-0.092 0-0.184 0-0.275-0.001h0.014zM668.211 419.072v0c-22.959-0.513-41.375-19.247-41.375-42.281 0-0.238 0.002-0.475 0.006-0.711v0.036-0.614c0.373-22.702 18.864-40.962 41.62-40.962 0.146 0 0.292 0.001 0.437 0.002h0.951c22.452 1.097 40.24 19.568 40.24 42.193 0 23.129-18.59 41.917-41.643 42.236h-0.030zM230.81 803.43c-101.632-10.24-153.139-70.4-152.986-178.842v-15.923l765.338 1.024v17.92c-2.048 108.186-54.682 167.526-156.365 176.384v-39.424c0-0.039 0-0.086 0-0.132 0-21.604-17.513-39.117-39.117-39.117-10.695 0-20.387 4.292-27.448 11.247l0.005-0.005c-6.875 7.11-11.112 16.809-11.112 27.498 0 0.143 0.001 0.286 0.002 0.428v-0.022 41.421l-300.288-0.41v-41.37c0-0.003 0-0.006 0-0.010 0-21.632-17.536-39.168-39.168-39.168-10.666 0-20.336 4.263-27.399 11.178l0.007-0.007c-6.876 7.11-11.113 16.809-11.113 27.498 0 0.161 0.001 0.321 0.003 0.481v-0.024 39.424z" />
<glyph unicode="&#xe902;" glyph-name="Calling" d="M671.744-35.635c-219.648 91.699-555.264 420.608-643.942 638.566-36.813 81.152-37.12 148.070-0.614 198.349 14.541 23.603 97.382 122.214 171.571 119.091 23.030-3.168 43.048-14.15 57.689-30.136l0.065-0.072c44.708-46.050 83.034-98.653 113.322-156.149l1.775-3.697c0.608-4.431 0.956-9.551 0.956-14.753 0-25.689-8.472-49.399-22.775-68.488l0.213 0.297c-13.67-23.962-50.278-69.325-40.96-95.795 62.604-137.422 172.342-244.288 308.1-301.655l3.862-1.449c25.907-9.421 71.219 27.136 95.078 40.96 18.693 14.157 42.336 22.676 67.97 22.676 5.208 0 10.333-0.352 15.354-1.033l-0.585 0.065c60.961-32.921 113.377-71.966 159.399-117.465l-0.065 0.064c15.917-14.634 26.802-34.522 29.896-56.898l0.056-0.497c2.765-75.878-100.352-162.509-119.142-173.312-23.344-16.882-52.543-27.003-84.106-27.003-0.851 0-1.701 0.007-2.549 0.022l0.128-0.002c-40.601 1.412-78.485 11.716-112.19 29.011l1.496-0.697zM759.552 553.933v0c-13.954 71.322-69.176 126.665-139.313 140.613l-1.128 0.187c-20.461 4.067-35.67 21.876-35.67 43.238 0 24.323 19.718 44.041 44.041 44.041 2.961 0 5.854-0.292 8.652-0.85l-0.281 0.047c106.503-21.148 189.030-103.848 209.645-208.754l0.275-1.678c0.506-2.512 0.795-5.399 0.795-8.354 0-21.352-15.11-39.175-35.221-43.359l-0.287-0.050c-2.553-0.483-5.491-0.762-8.494-0.768h-0.005c-21.273 0.113-38.967 15.293-42.962 35.406l-0.046 0.28zM936.499 557.773c-18.18 165.529-148.2 295.758-312.045 314.119l-1.606 0.146c-22.070 2.683-39.002 21.304-39.002 43.88 0 14.009 6.52 26.496 16.691 34.591l0.090 0.069c7.143 5.843 16.368 9.385 26.42 9.385 1.968 0 3.904-0.136 5.799-0.398l-0.219 0.025c206.343-23.070 368.487-185.529 390.89-390.016l0.175-1.972c0.184-1.511 0.29-3.26 0.29-5.034 0-22.514-16.956-41.067-38.794-43.587l-0.203-0.019c-1.417-0.197-3.053-0.309-4.716-0.309-0.142 0-0.284 0.001-0.425 0.002h0.022c-22.459 0.109-40.916 17.094-43.348 38.919l-0.018 0.198z" />
<glyph unicode="&#xe903;" glyph-name="certificate" horiz-adv-x="812" d="M798.691 539.556c8.154 12.244 13.011 27.291 13.011 43.473 0 21.327-8.436 40.683-22.154 54.914l0.023-0.024c-8.49 8.863-13.717 20.912-13.717 34.181 0 3.632 0.392 7.173 1.135 10.583l-0.060-0.327c1.124 5 1.768 10.742 1.768 16.635 0 31.604-18.527 58.881-45.312 71.563l-0.481 0.205c-14.595 6.942-25.104 20.42-27.807 36.545l-0.040 0.29c-5.927 36.309-35.883 64.059-72.765 66.54l-0.241 0.013c-16.762 1.179-31.103 10.551-39.155 24.098l-0.125 0.228c-13.969 23.685-39.354 39.325-68.392 39.325-8.471 0-16.632-1.331-24.284-3.796l0.56 0.156c-4.391-1.415-9.442-2.23-14.684-2.23-11.664 0-22.384 4.039-30.84 10.794l0.099-0.076c-13.402 10.766-30.619 17.279-49.358 17.279s-35.957-6.513-49.513-17.399l0.155 0.12c-8.355-6.68-19.075-10.719-30.738-10.719-5.243 0-10.295 0.816-15.037 2.329l0.35-0.096c-7.092 2.309-15.252 3.64-23.723 3.64-29.038 0-54.423-15.64-68.191-38.956l-0.201-0.369c-8.177-13.775-22.518-23.147-39.124-24.317l-0.157-0.009c-37.123-2.494-67.080-30.244-72.944-66.095l-0.062-0.457c-2.743-16.414-13.252-29.892-27.548-36.706l-0.299-0.128c-27.266-12.887-45.793-40.164-45.793-71.768 0-5.893 0.644-11.635 1.866-17.16l-0.098 0.525c0.684-3.083 1.075-6.624 1.075-10.256 0-13.269-5.227-25.318-13.734-34.199l0.017 0.018c-13.694-14.207-22.131-33.563-22.131-54.89 0-16.182 4.857-31.229 13.193-43.764l-0.182 0.291c5.044-7.621 8.047-16.977 8.047-27.034 0-6.849-1.393-13.373-3.911-19.304l0.122 0.324c-3.886-9.029-6.146-19.539-6.146-30.577 0-26.467 12.993-49.899 32.948-64.266l0.235-0.161c12.562-9.079 20.641-23.687 20.641-40.182 0-0.413-0.005-0.825-0.015-1.236l0.001 0.061c-0.018-0.637-0.029-1.388-0.029-2.14 0-36.751 25.047-67.652 59.002-76.563l0.551-0.123c10.769-2.848 19.839-8.94 26.354-17.151l0.078-0.102-82.775-199.54c-1.72-4.043-2.72-8.746-2.72-13.682 0-19.757 16.016-35.774 35.774-35.774 3.741 0 7.348 0.574 10.738 1.64l-0.253-0.069 90.539 27.773c0.504 0.159 1.083 0.25 1.684 0.25 2.2 0 4.113-1.227 5.093-3.034l0.015-0.031 44.349-83.614c6.142-11.372 17.974-18.968 31.581-18.968 14.81 0 27.518 8.999 32.954 21.828l0.088 0.235 86.090 207.924q1.694 0 3.389 0l86.208-207.924c5.518-13.075 18.233-22.085 33.051-22.085 13.621 0 25.465 7.613 31.507 18.816l0.094 0.19 44.349 83.614c0.991 1.839 2.903 3.067 5.101 3.067 0.603 0 1.185-0.093 1.732-0.264l-0.041 0.011 90.48-27.773c3.136-0.997 6.743-1.571 10.485-1.571 19.757 0 35.774 16.016 35.774 35.774 0 4.936-1 9.639-2.808 13.917l0.088-0.235-82.657 199.525c6.593 8.313 15.663 14.405 26.088 17.175l0.345 0.078c34.506 9.034 59.554 39.935 59.554 76.686 0 0.753-0.011 1.503-0.031 2.25l0.002-0.11c-0.009 0.35-0.014 0.762-0.014 1.176 0 16.495 8.079 31.103 20.497 40.083l0.145 0.1c20.193 14.528 33.187 37.961 33.187 64.43 0 11.042-2.262 21.557-6.347 31.105l0.196-0.516c-2.389 5.602-3.778 12.12-3.778 18.962 0 10.063 3.004 19.425 8.165 27.237l-0.115-0.185zM290.3-30.436c-0.883-2.119-2.937-3.581-5.332-3.581-2.201 0-4.114 1.235-5.084 3.049l-0.015 0.031-44.349 83.614c-6.15 11.386-17.996 18.99-31.619 18.99-3.749 0-7.363-0.576-10.759-1.644l0.254 0.069-90.48-27.773c-0.512-0.165-1.101-0.26-1.712-0.26-3.182 0-5.761 2.579-5.761 5.761 0 0.801 0.164 1.564 0.459 2.257l-0.014-0.038 73.33 177.027c14.555-19.774 37.742-32.462 63.891-32.462 3.321 0 6.595 0.205 9.809 0.602l-0.385-0.039c1.724 0.213 3.721 0.335 5.745 0.335 14.878 0 28.221-6.571 37.286-16.969l0.050-0.059c14.542-16.835 35.919-27.425 59.769-27.425 7.571 0 14.893 1.067 21.824 3.060l-0.556-0.137zM708.741 42.349l-90.466 27.744c-3.133 0.993-6.736 1.565-10.473 1.565-13.625 0-25.472-7.607-31.528-18.806l-0.094-0.19-44.349-83.614c-0.985-1.845-2.898-3.080-5.099-3.080-2.396 0-4.45 1.462-5.318 3.543l-0.014 0.038-76.395 184.438c6.34-1.829 13.623-2.881 21.151-2.881 23.886 0 45.299 10.589 59.801 27.328l0.084 0.099c9.11 10.449 22.444 17.015 37.312 17.015 2.028 0 4.028-0.122 5.992-0.36l-0.237 0.023c2.838-0.361 6.122-0.567 9.455-0.567 26.138 0 49.314 12.684 63.708 32.233l0.153 0.218 73.33-177.027c0.286-0.66 0.452-1.429 0.452-2.237 0-3.182-2.579-5.761-5.761-5.761-0.614 0-1.205 0.096-1.76 0.274l0.041-0.011zM773.569 555.94c-8.104-12.245-12.93-27.276-12.93-43.433 0-10.996 2.235-21.469 6.275-30.992l-0.196 0.52c2.419-5.621 3.826-12.164 3.826-19.035 0-16.475-8.086-31.061-20.506-40.006l-0.146-0.1c-20.146-14.589-33.101-38.038-33.101-64.512 0-0.676 0.008-1.351 0.025-2.023l-0.002 0.1c0.012-0.4 0.018-0.87 0.018-1.342 0-22.878-15.593-42.114-36.731-47.66l-0.343-0.077c-21.115-5.589-38.398-19.096-48.83-37.073l-0.204-0.38-0.088-0.162c-2.046-3.497-3.977-7.583-5.553-11.841l-0.178-0.55c-6.981-19.256-25.114-32.766-46.403-32.766-2.070 0-4.11 0.128-6.113 0.376l0.24-0.024c-2.784 0.346-6.006 0.543-9.275 0.543-23.9 0-45.334-10.558-59.893-27.264l-0.081-0.095c-9.086-10.476-22.417-17.063-37.286-17.063-8.462 0-16.426 2.133-23.383 5.892l0.261-0.129c-6.3 3.396-13.605 6.059-21.313 7.606l-0.507 0.085h-0.192c-4.545 0.924-9.769 1.453-15.117 1.453s-10.572-0.529-15.623-1.538l0.506 0.084h-0.103c-8.237-1.632-15.562-4.301-22.305-7.914l0.425 0.208c-6.696-3.629-14.66-5.763-23.122-5.763-14.87 0-28.201 6.587-37.234 17.002l-0.052 0.061c-14.64 16.801-36.074 27.359-59.974 27.359-3.268 0-6.491-0.197-9.655-0.581l0.381 0.038c-1.761-0.223-3.799-0.351-5.867-0.351-21.294 0-39.432 13.508-46.314 32.422l-0.109 0.343c-1.752 4.803-3.678 8.884-5.921 12.759l0.204-0.382-0.103 0.192c-10.635 18.348-27.912 31.849-48.465 37.313l-0.554 0.125c-21.481 5.623-37.074 24.859-37.074 47.737 0 0.472 0.007 0.942 0.020 1.411l-0.002-0.069c0.015 0.573 0.023 1.247 0.023 1.923 0 26.474-12.954 49.922-32.87 64.352l-0.231 0.159c-12.566 9.045-20.652 23.632-20.652 40.106 0 6.871 1.407 13.414 3.948 19.357l-0.122-0.321c3.844 9.002 6.079 19.476 6.079 30.471 0 16.158-4.825 31.188-13.114 43.73l0.184-0.296c-5.076 7.623-8.1 16.991-8.1 27.066 0 13.275 5.25 25.324 13.787 34.183l-0.015-0.015c13.645 14.237 22.045 33.594 22.045 54.913 0 5.834-0.629 11.521-1.823 16.997l0.096-0.524c-0.701 3.115-1.102 6.693-1.102 10.364 0 19.676 11.533 36.657 28.208 44.554l0.299 0.128c23.458 11.164 40.343 32.839 44.668 58.766l0.064 0.464c3.691 22.6 22.334 39.872 45.288 41.423l0.151 0.008c26.934 1.915 49.971 16.995 62.889 38.78l0.202 0.367c8.71 14.689 24.484 24.383 42.522 24.383 5.293 0 10.391-0.835 15.17-2.38l-0.349 0.097c7.050-2.271 15.16-3.58 23.576-3.58 18.739 0 35.963 6.491 49.545 17.346l-0.159-0.123c8.347 6.712 19.074 10.773 30.749 10.773s22.402-4.061 30.845-10.848l-0.096 0.074c13.423-10.733 30.647-17.224 49.386-17.224 8.416 0 16.526 1.309 24.138 3.735l-0.562-0.155c4.427 1.445 9.521 2.278 14.809 2.278 18.037 0 33.81-9.692 42.395-24.152l0.125-0.227c13.138-22.128 36.178-37.181 62.853-39.060l0.252-0.014c23.105-1.559 41.749-18.832 45.401-41.147l0.038-0.285c4.391-26.389 21.275-48.064 44.252-59.024l0.48-0.206c16.975-8.020 28.509-24.999 28.509-44.673 0-3.674-0.402-7.255-1.165-10.7l0.061 0.327c-1.098-4.951-1.727-10.638-1.727-16.472 0-21.319 8.4-40.676 22.072-54.941l-0.027 0.028c8.522-8.844 13.772-20.893 13.772-34.168 0-10.075-3.024-19.443-8.213-27.247l0.113 0.181zM121.745 575.742c0.551-0.072 1.189-0.113 1.836-0.113 7.638 0 13.943 5.709 14.879 13.093l0.008 0.074c16.996 133.935 130.231 236.452 267.411 236.452 137.226 0 250.492-102.587 267.289-235.253l0.138-1.331c0.942-7.461 7.248-13.173 14.889-13.173 8.284 0 15 6.716 15 15 0 0.644-0.041 1.278-0.119 1.901l0.008-0.074c-18.999 148.742-144.793 262.552-297.168 262.552-152.323 0-278.083-113.732-296.993-260.911l-0.157-1.494c-0.072-0.551-0.113-1.189-0.113-1.836 0-7.638 5.709-13.943 13.093-14.879l0.074-0.008zM689.955 535.475c-0.543 0.069-1.17 0.109-1.807 0.109-7.645 0-13.955-5.714-14.893-13.104l-0.008-0.074c-16.994-133.945-130.237-236.472-267.426-236.472-137.148 0-250.363 102.464-267.272 235.016l-0.139 1.338c-0.945 7.458-7.25 13.167-14.889 13.167-8.285 0-15.001-6.716-15.001-15.001 0-0.647 0.041-1.284 0.12-1.909l-0.008 0.074c18.981-148.752 144.777-262.576 297.158-262.576 152.428 0 278.255 113.895 297.020 261.224l0.154 1.485c0.072 0.553 0.113 1.192 0.113 1.842 0 7.623-5.686 13.917-13.048 14.873l-0.075 0.008zM617.656 617.439c-3.717 11.443-14.111 19.642-26.476 20.037l-0.045 0.001-117.605 4.214-40.356 110.504c-4.188 11.211-14.808 19.050-27.258 19.050s-23.069-7.839-27.192-18.85l-0.066-0.2-40.356-110.504-117.605-4.214c-15.587-0.564-28.008-13.335-28.008-29.008 0-9.261 4.337-17.508 11.090-22.823l0.062-0.047 92.661-72.535-32.326-113.156c-0.712-2.395-1.122-5.146-1.122-7.993 0-16.030 12.995-29.026 29.026-29.026 6.053 0 11.674 1.853 16.325 5.023l-0.1-0.065 97.626 65.713 97.626-65.713c4.551-3.105 10.171-4.958 16.224-4.958 16.030 0 29.026 12.995 29.026 29.026 0 2.847-0.41 5.599-1.174 8.198l0.052-0.205-32.326 113.156 92.661 72.535c6.795 5.312 11.121 13.509 11.121 22.716 0 3.264-0.544 6.401-1.546 9.326l0.060-0.202zM496.279 536.285c-6.816-5.339-11.155-13.57-11.155-22.814 0-2.859 0.415-5.62 1.188-8.228l-0.052 0.205 31.781-111.226-95.961 64.593c-4.543 3.113-10.158 4.971-16.207 4.971s-11.665-1.858-16.306-5.035l0.099 0.064-95.961-64.593 31.781 111.226c0.72 2.402 1.134 5.162 1.134 8.018 0 9.245-4.338 17.478-11.090 22.772l-0.063 0.048-91.099 71.312 115.616 4.155c12.046 0.415 22.187 8.135 26.161 18.851l0.065 0.2 39.663 108.662 39.663-108.662c4.035-10.918 14.179-18.64 26.178-19.050l0.048-0.001 115.601-4.155z" />
<glyph unicode="&#xe904;" glyph-name="Chat" d="M512-64c-0.021 0-0.045 0-0.070 0-92.611 0-179.454 24.7-254.299 67.871l2.465-1.311c-15.768 11.812-35.146 19.646-56.221 21.673l-0.457 0.036c-7.021-0.017-13.762-1.197-20.046-3.356l-102.987-30.59c-3.453-1.147-7.429-1.819-11.559-1.843h-0.012c-0.165-0.003-0.359-0.005-0.553-0.005-10.148 0-19.183 4.762-24.995 12.173l-0.052 0.069c-3.984 5.403-6.376 12.191-6.376 19.539 0 3.592 0.572 7.050 1.629 10.289l-0.066-0.234 34.304 114.893c2.276 5.723 3.596 12.354 3.596 19.294 0 9.863-2.666 19.103-7.317 27.039l0.137-0.253c-42.111 73.713-67.554 161.721-69.114 255.54l-0.006 0.46c0.759 138.916 55.862 264.816 145.11 357.649l-0.163-0.171c92.261 95.768 221.615 155.249 364.861 155.249 1.131 0 2.261-0.004 3.39-0.011l-0.174 0.001c0.627 0.003 1.369 0.004 2.112 0.004 142.122 0 270.534-58.699 362.315-153.176l0.117-0.121c44.656-45.653 80.946-99.707 106.251-159.539l1.269-3.379c24.606-57.501 38.912-124.411 38.912-194.663 0-0.126 0-0.252 0-0.378v0.019c0.009-1.122 0.014-2.449 0.014-3.777 0-75.948-16.311-148.087-45.622-213.104l1.32 3.274c-28.744-63.248-68.018-116.912-116.125-161.112l-0.355-0.322c-92.258-84.721-215.572-136.91-351.066-137.727l-0.166-0.001zM747.008 512.358c-0.030 0-0.066 0-0.102 0-36.251 0-65.638-29.387-65.638-65.638s29.387-65.638 65.638-65.638c36.251 0 65.638 29.387 65.638 65.638v0c0 0 0 0 0 0 0 36.215-29.329 65.58-65.53 65.638h-0.006zM510.003 512.358c-35.701-0.203-64.564-29.191-64.564-64.921 0-0.072 0-0.145 0-0.217v0.011c-0.001-0.122-0.001-0.266-0.001-0.41 0-36.195 29.341-65.536 65.536-65.536s65.536 29.341 65.536 65.536c0 36.194-29.341 65.535-65.535 65.536h-0.973zM274.944 512.358c-0.030 0-0.066 0-0.102 0-36.251 0-65.638-29.387-65.638-65.638s29.387-65.638 65.638-65.638c36.251 0 65.638 29.387 65.638 65.638v0c-0.029 36.203-29.341 65.551-65.528 65.638h-0.008z" />
<glyph unicode="&#xe906;" glyph-name="double-quotes" horiz-adv-x="1365" d="M0 960v-512h341.346c-0.209-188.429-152.914-341.121-341.328-341.309h-0.018v-170.654c282.631 0.313 511.666 229.335 512 511.931v512.033zM853.309 960v-512h341.346c-0.209-188.429-152.914-341.121-341.328-341.309h-0.018v-170.654c282.631 0.313 511.666 229.335 512 511.931v512.033z" />
<glyph unicode="&#xe90c;" glyph-name="Labratory" horiz-adv-x="730" d="M722.839 72.803l-216.538 527.785c-11.448 27.078-18.1 58.563-18.1 91.601 0 0.080 0 0.159 0 0.239v-0.012 139.539c0 0.049 0 0.106 0 0.164 0 15.481 6.294 29.491 16.463 39.612l0.002 0.002c12.411 12.345 20.092 29.434 20.092 48.317 0 0.089 0 0.177-0.001 0.266v-0.014 19.687c0 11.046-8.95 20.001-19.993 20.010h-279.241c-11.043 0-19.994-8.952-19.994-19.994v-19.784c0-0.075 0-0.163 0-0.252 0-18.883 7.681-35.973 20.089-48.314l0.003-0.003c10.171-10.123 16.465-24.133 16.465-39.614 0-0.035 0-0.070 0-0.105v0.005-139.507c0-0.081 0-0.176 0-0.271 0-33.029-6.653-64.504-18.691-93.158l0.591 1.585-59.497-145.028v-0.162l-157.040-382.596c-4.689-11.124-7.414-24.056-7.414-37.625 0-54.774 44.403-99.178 99.177-99.178h531.865c54.774 0.001 99.177 44.404 99.177 99.178 0 13.569-2.725 26.501-7.657 38.279l0.243-0.654zM260.995 585.435c13.311 31.515 21.047 68.156 21.047 106.604 0 0.138 0 0.277 0 0.415v-0.022 139.523c0 0.061 0 0.133 0 0.205 0 26.494-10.775 50.471-28.182 67.788l-0.004 0.004c-5.132 5.11-8.322 12.167-8.37 19.969v0.009h239.284c-0.050-7.814-3.247-14.871-8.385-19.977l-0.001-0.001c-17.411-17.323-28.187-41.303-28.187-67.798 0-0.070 0-0.14 0-0.209v0.011-139.507c0-0.108 0-0.237 0-0.365 0-38.458 7.735-75.109 21.735-108.483l-0.688 1.85 48.294-117.699h-304.836zM680.308 2.216c-10.58-15.887-28.418-26.213-48.667-26.213-0.171 0-0.341 0.001-0.511 0.002h-531.92c-32.712 0.029-59.219 26.554-59.219 59.271 0 2.959 0.217 5.866 0.635 8.709l-0.039-0.322h32.962c11.047 0 20.002 8.955 20.002 20.002s-8.955 20.002-20.002 20.002v0h-18.375l22.973 56h33.723c11.047 0 20.002 8.955 20.002 20.002s-8.955 20.002-20.002 20.002h-17.323l22.973 56h34.695c11.047 0 20.002 8.955 20.002 20.002s-8.955 20.002-20.002 20.002h-18.278l22.973 56.065h35.617c11.047 0 20.002 8.955 20.002 20.002s-8.955 20.002-20.002 20.002h-19.266l22.973 56h337.75l151.843-370.113c2.873-6.661 4.543-14.415 4.543-22.56 0-12.273-3.794-23.661-10.272-33.053l0.127 0.195zM624.065 71.573c-3.067 7.353-10.198 12.427-18.513 12.427-11.048 0-20.003-8.956-20.003-20.003 0-2.732 0.548-5.336 1.539-7.709l-0.049 0.132 0.113-0.243c3.067-7.348 10.194-12.419 18.505-12.419 11.043 0 19.996 8.952 19.996 19.996 0 2.732-0.548 5.336-1.54 7.709l0.049-0.132zM595.798 140.46l-71.623 174.574c-3.071 7.343-10.196 12.409-18.505 12.409-11.047 0-20.002-8.955-20.002-20.002 0-2.738 0.55-5.348 1.546-7.725l-0.049 0.132 71.623-174.574c3.071-7.343 10.196-12.409 18.505-12.409 11.047 0 20.002 8.955 20.002 20.002 0 2.738-0.55 5.348-1.546 7.725l0.049-0.132z" />
<glyph unicode="&#xe90f;" glyph-name="Location" horiz-adv-x="870" d="M435.2-64c-14.136 0.516-27.090 5.176-37.795 12.791l0.214-0.144c-110.931 72.023-204.833 159.423-281.668 260.503l-1.98 2.716c-69.702 87.856-112.372 199.92-113.968 321.894l-0.004 0.359c0 0.040 0 0.089 0 0.137 0 118.199 49.036 224.944 127.875 301.004l0.126 0.12c78.688 77.065 186.535 124.623 305.489 124.623 0.475 0 0.951-0.001 1.426-0.002h-0.074c1.288 0.014 2.81 0.022 4.334 0.022 236.295 0 428.203-190.041 431.221-425.619l0.003-0.284c-1.687-122.353-44.421-234.407-115.017-323.35l0.841 1.097c-79.135-103.504-172.996-190.848-279.429-260.593l-4.271-2.626c-10.38-7.529-23.266-12.203-37.219-12.644l-0.105-0.003zM434.842 664.218c-79.176 0-143.36-64.184-143.36-143.36v0c-0.001-0.152-0.001-0.332-0.001-0.512 0-39.018 16.094-74.278 42.005-99.503l0.031-0.030c26.004-25.302 61.557-40.906 100.755-40.906 78.565 0 142.489 62.683 144.489 140.765l0.004 0.185c-0.693 79.129-64.843 143.045-143.995 143.36h-0.030z" />
<glyph unicode="&#xe910;" glyph-name="machine-manufacturing" horiz-adv-x="1025" d="M636.874 307.124c-0.034 68.776-55.796 124.516-124.576 124.516-54.505 0-100.834-35.003-117.735-83.756l-0.264-0.875c-0.505-1.439-0.796-3.098-0.796-4.825 0-8.292 6.722-15.013 15.013-15.013 6.565 0 12.145 4.213 14.185 10.083l0.032 0.105c13.017 37.675 48.181 64.25 89.552 64.25 52.21 0 94.534-42.324 94.534-94.534s-42.324-94.534-94.534-94.534c-41.371 0-76.535 26.575-89.352 63.586l-0.2 0.664c-2.072 5.975-7.652 10.189-14.217 10.189-8.292 0-15.013-6.722-15.013-15.013 0-1.727 0.292-3.386 0.828-4.93l-0.032 0.105c17.135-49.67 63.483-84.713 118.015-84.713 68.793 0 124.56 55.768 124.56 124.56 0 0.013 0 0.026 0 0.040v-0.002zM961.101 63.23h-381.159c0.838 3.060 1.319 6.574 1.319 10.201 0 0.004 0 0.008 0 0.012v-0.001c0 0.017 0 0.038 0 0.058 0 4.427 2.839 8.191 6.796 9.57l0.071 0.022c11.592 3.935 21.227 8.018 30.51 12.696l-1.352-0.618c1.316 0.666 2.868 1.057 4.512 1.057 2.771 0 5.284-1.109 7.117-2.908l0.094-0.094c7.277-7.283 17.334-11.788 28.442-11.788s21.165 4.505 28.442 11.788l40.496 40.496c7.283 7.277 11.788 17.334 11.788 28.442s-4.505 21.165-11.788 28.442v0c-1.813 1.835-2.933 4.358-2.933 7.143 0 1.64 0.388 3.188 1.078 4.56l-0.027-0.058c4.058 7.928 8.141 17.563 11.579 27.499l0.499 1.659c1.401 4.028 5.165 6.867 9.592 6.867 0.020 0 0.041 0 0.061 0h-0.003c22.206 0 40.207 18.001 40.207 40.207v0 57.254c0 22.206-18.001 40.207-40.207 40.207v0c-0.017 0-0.038 0-0.058 0-4.427 0-8.191 2.839-9.57 6.796l-0.022 0.071c-3.936 11.593-8.018 21.228-12.696 30.511l0.618-1.353c-0.661 1.312-1.048 2.86-1.048 4.498 0 2.817 1.144 5.367 2.993 7.21v0c7.283 7.277 11.788 17.334 11.788 28.442s-4.505 21.165-11.788 28.442l-40.496 40.496c-7.277 7.283-17.334 11.788-28.442 11.788s-21.165-4.505-28.442-11.788v0c-1.835-1.813-4.358-2.933-7.143-2.933-1.64 0-3.188 0.388-4.56 1.078l0.058-0.027c-7.93 4.064-17.564 8.152-27.5 11.594l-1.658 0.5c-4.028 1.401-6.867 5.165-6.867 9.592 0 0.020 0 0.041 0 0.061v-0.003c0 22.206-18.001 40.207-40.207 40.207v0h-57.496c-22.206 0-40.207-18.001-40.207-40.207v0c0-0.017 0-0.038 0-0.058 0-4.427-2.839-8.191-6.796-9.57l-0.071-0.022c-11.591-3.941-21.226-8.028-30.508-12.712l1.35 0.618c-1.313-0.663-2.862-1.051-4.501-1.051-2.785 0-5.308 1.12-7.144 2.934l0.001-0.001c-7.277 7.283-17.334 11.788-28.442 11.788s-21.165-4.505-28.442-11.788l-40.496-40.496c-7.288-7.278-11.796-17.338-11.796-28.45s4.508-21.172 11.796-28.45v0c1.845-1.84 2.986-4.385 2.986-7.196 0-1.644-0.39-3.196-1.083-4.57l0.027 0.058c-4.059-7.929-8.141-17.564-11.579-27.499l-0.499-1.659c-1.401-4.028-5.165-6.867-9.592-6.867-0.020 0-0.041 0-0.061 0h0.003c-22.206 0-40.207-18.001-40.207-40.207v0-57.254c0-22.206 18.001-40.207 40.207-40.207v0c0.017 0 0.038 0 0.058 0 4.427 0 8.191-2.839 9.57-6.796l0.022-0.071c3.937-11.594 8.020-21.229 12.697-30.513l-0.619 1.355c0.663-1.313 1.051-2.862 1.051-4.501 0-2.785-1.12-5.308-2.934-7.144l0.001 0.001c-7.283-7.277-11.788-17.334-11.788-28.442s4.505-21.165 11.788-28.442l40.496-40.496c7.277-7.283 17.334-11.788 28.442-11.788s21.165 4.505 28.442 11.788l0.097 0.097c1.832 1.797 4.344 2.906 7.115 2.906 1.644 0 3.197-0.39 4.571-1.083l-0.058 0.027c7.931-4.065 17.565-8.153 27.501-11.595l1.657-0.499c4.029-1.406 6.867-5.173 6.867-9.603 0-0.016 0-0.033 0-0.049v0.003c0-3.63 0.481-7.149 1.383-10.494l-0.065 0.281h-381.368c-0.301 0.005-0.656 0.008-1.011 0.008-35.111 0-63.575-28.463-63.575-63.575s28.463-63.575 63.575-63.575c0.356 0 0.71 0.003 1.064 0.009l-0.053-0.001h897.526c35.111 0 63.575 28.463 63.575 63.575s-28.463 63.575-63.575 63.575v0zM473.506 73.443c-0.004 17.597-11.312 32.552-27.058 37.999l-0.282 0.085c-10.113 3.436-18.52 7.002-26.619 11.088l1.176-0.538c-5.201 2.631-11.339 4.173-17.836 4.173-11.104 0-21.158-4.502-28.434-11.78l-0.097-0.097c-1.837-1.799-4.355-2.91-7.132-2.91-2.817 0-5.368 1.143-7.213 2.99l-40.432 40.448c-1.833 1.843-2.966 4.384-2.966 7.189s1.133 5.346 2.966 7.189v0c7.275 7.276 11.774 17.327 11.774 28.429 0 6.493-1.539 12.627-4.273 18.056l0.105-0.231c-3.543 6.918-7.109 15.324-10.113 23.994l-0.437 1.449c-5.53 16.023-20.477 27.329-38.066 27.341h-0.001c-5.64 0-10.212 4.572-10.212 10.212v0 57.254c0 5.64 4.572 10.212 10.212 10.212v0c17.591 0.011 32.538 11.317 37.983 27.058l0.085 0.282c3.438 10.115 7.003 18.522 11.089 26.622l-0.539-1.179c2.628 5.198 4.167 11.332 4.167 17.825 0 11.11-4.506 21.167-11.79 28.444v0c-1.862 1.848-3.014 4.408-3.014 7.237s1.152 5.389 3.013 7.237l40.497 40.497c1.843 1.833 4.384 2.966 7.189 2.966s5.346-1.133 7.189-2.966v0c7.276-7.275 17.327-11.774 28.429-11.774 6.493 0 12.627 1.539 18.056 4.273l-0.231-0.105c6.919 3.545 15.326 7.111 23.996 10.114l1.447 0.436c16.028 5.531 27.337 20.486 27.341 38.083v0.001c0 5.64 4.572 10.212 10.212 10.212v0h57.27c5.64 0 10.212-4.572 10.212-10.212v0c0.004-17.597 11.312-32.552 27.058-37.999l0.282-0.085c10.116-3.439 18.523-7.004 26.623-11.090l-1.18 0.54c5.201-2.631 11.339-4.173 17.836-4.173 11.104 0 21.158 4.502 28.434 11.78v0c1.843 1.833 4.384 2.966 7.189 2.966s5.346-1.133 7.189-2.966v0l40.496-40.496c1.862-1.848 3.014-4.408 3.014-7.237s-1.152-5.389-3.013-7.237l-0.001-0.001c-7.275-7.276-11.774-17.327-11.774-28.429 0-6.493 1.539-12.627 4.273-18.056l-0.105 0.231c3.544-6.919 7.11-15.325 10.114-23.995l0.436-1.448c5.53-16.023 20.477-27.329 38.066-27.341h0.001c5.64 0 10.212-4.572 10.212-10.212v0-57.254c0-5.64-4.572-10.212-10.212-10.212v0c-17.591-0.011-32.538-11.317-37.983-27.058l-0.085-0.282c-3.441-10.118-7.006-18.525-11.091-26.625l0.54 1.183c-2.631-5.201-4.173-11.339-4.173-17.836 0-11.104 4.502-21.158 11.78-28.434v0c1.833-1.843 2.966-4.384 2.966-7.189s-1.133-5.346-2.966-7.189v0l-40.496-40.496c-1.846-1.847-4.396-2.99-7.213-2.99-2.777 0-5.295 1.11-7.134 2.911l-0.094 0.094c-7.276 7.278-17.329 11.78-28.434 11.78-6.497 0-12.635-1.541-18.067-4.278l0.231 0.105c-6.921-3.547-15.328-7.113-23.998-10.115l-1.445-0.435c-16.028-5.531-27.337-20.486-27.341-38.083v-0.001c0-5.64-4.572-10.212-10.212-10.212h-57.19c-5.637 0.009-10.203 4.576-10.212 10.212v0.001zM961.101-33.893h-897.526c-18.533 0-33.557 15.024-33.557 33.557s15.024 33.557 33.557 33.557v0h897.526c18.533 0 33.557-15.024 33.557-33.557s-15.024-33.557-33.557-33.557v0zM968.531 860.899h-353.481v0.579c-0.018 16.329-13.26 29.56-29.592 29.56-0.017 0-0.034 0-0.051 0h-58.055v5.709c-0.082 34.929-28.398 63.217-63.33 63.253h-239.635c-34.915-0.064-63.203-28.341-63.285-63.245v-118.039h-104.972c-0.193-0.005-0.42-0.008-0.648-0.008-14.425 0-26.118 11.694-26.118 26.118s11.694 26.118 26.118 26.118c0.228 0 0.455-0.003 0.682-0.009l-0.033 0.001h49.856c8.292 0 15.013 6.722 15.013 15.013s-6.722 15.013-15.013 15.013h-49.856c-30.999 0-56.129-25.13-56.129-56.129s25.13-56.129 56.129-56.129h12.609v-19.299c0-33.797 27.398-61.195 61.195-61.195s61.195 27.398 61.195 61.195v0 19.299h218.499v-0.579c0.018-16.318 13.242-29.542 29.558-29.56h0.147l21.277-52.944c4.010-9.883 13.534-16.726 24.656-16.726 0.028 0 0.055 0 0.083 0h11.994v-27.341c0-8.292 6.722-15.013 15.013-15.013s15.013 6.722 15.013 15.013v0 27.341h11.998c0.023 0 0.051 0 0.079 0 11.123 0 20.647 6.843 24.593 16.548l0.064 0.178 21.31 52.88h0.145c16.318 0.018 29.542 13.242 29.56 29.558v0.581h353.433c30.999 0 56.129 25.13 56.129 56.129s-25.13 56.129-56.129 56.129v0zM161.1 729.294c0-17.218-13.958-31.176-31.176-31.176s-31.176 13.958-31.176 31.176v0 19.299h62.353zM439.186 891.037c-16.318-0.018-29.542-13.242-29.56-29.558v-0.581h-163.336c-8.292 0-15.013-6.722-15.013-15.013s6.722-15.013 15.013-15.013h163.336v-52.22h-218.499v118.095c0.018 18.388 14.92 33.289 33.305 33.307h239.634c18.367-0.046 33.241-14.936 33.259-33.305v-5.647zM537.081 678.859h-49.486l-15.922 39.644h81.33zM585.039 748.513h-145.387v112.498h145.387zM968.547 778.652h-353.497v52.156h353.481c14.143-0.362 25.47-11.913 25.47-26.11s-11.327-25.748-25.437-26.11l-0.033-0.001z" />
<glyph unicode="&#xe911;" glyph-name="menu" horiz-adv-x="4725" d="M4575.463 810.045c92.715-92.68 150.063-220.736 150.063-362.186 0-282.83-229.279-512.109-512.109-512.109s-512.109 229.279-512.109 512.109c0 141.45 57.348 269.505 150.062 362.184l0.002 0.002c92.666 92.632 220.665 149.923 362.045 149.923s269.379-57.291 362.047-149.925l-0.002 0.002zM2724.645 810.045c92.715-92.68 150.063-220.736 150.063-362.186 0-282.83-229.279-512.109-512.109-512.109s-512.109 229.279-512.109 512.109c0 141.45 57.348 269.505 150.062 362.184l0.002 0.002c92.666 92.632 220.665 149.923 362.045 149.923s269.379-57.291 362.047-149.925l-0.002 0.002zM874.045 810.045c92.715-92.68 150.063-220.736 150.063-362.186 0-282.83-229.279-512.109-512.109-512.109s-512.109 229.279-512.109 512.109c0 141.45 57.348 269.505 150.062 362.184l0.002 0.002c92.666 92.632 220.665 149.923 362.045 149.923s269.379-57.291 362.047-149.925l-0.002 0.002z" />
<glyph unicode="&#xe912;" glyph-name="Message" horiz-adv-x="1138" d="M849.863-64h-562.005c-158.767 0.032-287.502 128.567-287.858 287.255v449.456c0.356 158.722 129.091 287.257 287.855 287.289h562.008c79.489-0.157 151.437-32.312 203.675-84.265l-0.013 0.013c52.040-51.671 84.253-123.25 84.253-202.354 0-0.24 0-0.48-0.001-0.72v0.038-449.422c-0.356-158.741-129.123-287.289-287.914-287.289 0 0 0 0-0.001 0v0zM229.49 661.561c-0.11 0.001-0.24 0.002-0.371 0.002-11.777 0-22.413-4.882-29.996-12.733l-0.012-0.012c-7.886-7.869-12.764-18.748-12.764-30.767 0-9.853 3.278-18.94 8.804-26.23l-0.079 0.108 7.452-7.396 258.844-201.956c30.105-24.106 68.748-38.684 110.795-38.684 0.048 0 0.097 0 0.145 0h-0.007c42.229 0.1 81.039 14.654 111.766 38.973l-0.378-0.289 256.683 205.369 4.551 4.551c6.275 7.554 10.083 17.353 10.083 28.041 0 11.060-4.078 21.167-10.811 28.901l0.045-0.053c-7.645 8.17-18.113 13.616-29.841 14.775l-0.196 0.016h-2.389c-0.087 0.001-0.191 0.001-0.294 0.001-11.286 0-21.562-4.324-29.262-11.407l0.031 0.028-256.512-204.8c-15.292-12.744-35.147-20.48-56.809-20.48-0.028 0-0.056 0-0.084 0h0.004c-21.673 0.117-41.522 7.828-57.045 20.605l0.156-0.125-256 204.8c-7.282 5.471-16.474 8.761-26.434 8.761-0.027 0-0.054 0-0.080 0h0.004z" />
<glyph unicode="&#xe913;" glyph-name="Organizational-Chart" horiz-adv-x="970" d="M949.597-24.004h-43.867v636.952c-0.037 29.677-24.085 53.725-53.759 53.762h-97.986c-29.705 0-53.79-24.062-53.826-53.758v-636.94h-111.395v348.337c-0.037 29.677-24.085 53.725-53.759 53.762h-98.115c-29.677-0.037-53.725-24.085-53.762-53.759v-348.356h-111.315v180.417c-0.037 29.677-24.085 53.725-53.759 53.762h-97.986c-29.677-0.037-53.725-24.085-53.762-53.759v-180.404h-46.309c-11.045 0-19.998-8.953-19.998-19.998s8.953-19.998 19.998-19.998v0h929.599c11.045 0 19.998 8.953 19.998 19.998s-8.953 19.998-19.998 19.998v0zM231.801-24.004h-125.579v180.417c0.009 7.599 6.167 13.757 13.765 13.766h97.984c7.599-0.009 13.757-6.167 13.766-13.765v-180.402zM548.768-24.004h-125.579v348.353c0.009 7.599 6.167 13.757 13.765 13.766h97.984c7.599-0.009 13.757-6.167 13.766-13.765v-0.001zM865.734-24.004h-125.579v636.952c0.009 7.599 6.167 13.757 13.765 13.766h97.984c0.024 0 0.052 0 0.080 0 7.606 0 13.773-6.161 13.782-13.765v-636.937zM905.682 938.974c0.020 0.335 0.032 0.727 0.032 1.121 0 11.009-8.925 19.934-19.934 19.934-0.378 0-0.754-0.011-1.127-0.031l0.052 0.002c-0.321 0-0.643 0-0.964 0h-121.001c-11.045 0-19.998-8.953-19.998-19.998s8.953-19.998 19.998-19.998v0h74.708l-197.668-197.732-74.563 74.563c-3.619 3.62-8.62 5.86-14.143 5.86s-10.524-2.239-14.143-5.86l-359.581-359.532c-3.62-3.62-5.858-8.62-5.858-14.143 0-11.047 8.955-20.002 20.002-20.002 5.523 0 10.524 2.239 14.143 5.858l345.349 345.349 74.563-74.563c3.619-3.62 8.62-5.86 14.143-5.86s10.524 2.239 14.143 5.86l211.9 211.916v-67.624c0-11.045 8.953-19.998 19.998-19.998s19.998 8.953 19.998 19.998v0 113.901c0 0.337-0.032 0.643-0.048 0.98zM144.067 353.374c0-11.045-8.953-19.998-19.998-19.998s-19.998 8.953-19.998 19.998c0 11.045 8.953 19.998 19.998 19.998s19.998-8.953 19.998-19.998z" />
<glyph unicode="&#xe914;" glyph-name="Search" d="M908.243-43.965l-108.544 124.438c-9.905 10.016-16.024 23.794-16.024 39.001s6.119 28.985 16.029 39.006l-0.005-0.005c9.128 9.087 21.717 14.705 35.617 14.705s26.489-5.618 35.619-14.707l-0.002 0.002 130.805-105.561h2.315c12.266-12.456 19.84-29.563 19.84-48.44s-7.574-35.983-19.849-48.448l0.009 0.009c-12.214-12.379-29.175-20.046-47.928-20.046s-35.714 7.668-47.92 20.039l-0.007 0.007zM0 516.118c-0.004 0.69-0.006 1.505-0.006 2.322 0 243.028 196.332 440.199 439.039 441.56l0.129 0.001c121.512-0.116 231.389-49.837 310.492-130l0.047-0.048c79.513-80.54 128.623-191.259 128.623-313.449 0-0.135 0-0.271 0-0.406v0.021c0.004-0.703 0.006-1.534 0.006-2.366 0-243.012-196.306-440.173-438.991-441.559l-0.133-0.001c-242.857 1.336-439.213 198.517-439.213 441.56 0 0.832 0.002 1.663 0.007 2.494l-0.001-0.128z" />
<glyph unicode="&#xe915;" glyph-name="shop-bag" horiz-adv-x="936" d="M65.479 631.171c0.49-0.057 1.057-0.089 1.632-0.089 7.713 0 14.065 5.827 14.895 13.318l0.006 0.067 8.561 78.441c1.63 14.598 13.902 25.844 28.8 25.844 0.015 0 0.029 0 0.044 0h104.219v-50.221c0-8.286 6.717-15.003 15.003-15.003s15.003 6.717 15.003 15.003v50.221h257.897v-50.221c0-8.286 6.717-15.003 15.003-15.003s15.003 6.717 15.003 15.003v0 50.221h104.205c0.031 0 0.067 0 0.104 0 14.904 0 27.179-11.255 28.79-25.729l0.012-0.131 20.519-188.576c0.847-7.548 7.188-13.364 14.89-13.376h0.001c0.542 0 1.1 0 1.594 0.080 7.56 0.844 13.384 7.199 13.384 14.915 0 0.57-0.032 1.133-0.094 1.686l0.006-0.068-20.567 188.544c-3.326 29.719-28.312 52.613-58.644 52.613-0.004 0-0.008 0-0.012 0h-104.188v22.336c0 87.788-71.166 158.954-158.954 158.954s-158.954-71.166-158.954-158.954v0-22.32h-104.221c-0.003 0-0.007 0-0.011 0-30.333 0-55.318-22.894-58.62-52.345l-0.024-0.268-8.561-78.441c-0.056-0.486-0.088-1.049-0.088-1.62 0-7.71 5.816-14.062 13.3-14.907l0.069-0.006zM253.64 801.046c0 71.221 57.736 128.957 128.957 128.957s128.957-57.736 128.957-128.957v-22.32h-257.913zM785.139 407.313c-8.526-8.526-13.799-20.304-13.799-33.313 0-26.019 21.093-47.112 47.112-47.112s47.112 21.093 47.112 47.112c0 13.010-5.273 24.788-13.799 33.313v0c-8.533 8.51-20.308 13.772-33.313 13.772s-24.781-5.262-33.314-13.773l0.001 0.001zM830.545 361.891c-3.095-3.093-7.37-5.006-12.092-5.006-9.448 0-17.107 7.659-17.107 17.107s7.659 17.107 17.107 17.107c4.722 0 8.997-1.913 12.092-5.006v0c3.1-3.101 5.018-7.385 5.018-12.117 0-4.716-1.905-8.987-4.987-12.086l0.001 0.001zM935.659 252.473l-6.983 172.394c-1.489 32.147-27.177 57.835-59.187 59.32l-0.138 0.005-172.394 6.999c-0.72 0.030-1.564 0.047-2.413 0.047-17.109 0-32.6-6.926-43.823-18.128l-250.929-250.881c-11.687-11.672-19.008-27.712-19.306-45.461l-0.001-0.056h-349.491l44.545 408.337c0.023 0.309 0.036 0.669 0.036 1.032 0 8.286-6.717 15.003-15.003 15.003-7.525 0-13.756-5.54-14.837-12.764l-0.010-0.082-45.008-412.307c-0.466-4.013-0.732-8.664-0.732-13.376 0-67.73 54.906-122.635 122.635-122.635 0.005 0 0.010 0 0.015 0h365.96l84.674-84.674c11.963-11.938 28.476-19.321 46.714-19.321s34.751 7.382 46.715 19.322l250.881 250.881c11.2 11.222 18.127 26.713 18.127 43.822 0 0.849-0.017 1.693-0.051 2.534l0.004-0.121zM122.635 70.003c0 0 0 0 0 0-45.538 0-83.401 32.867-91.159 76.173l-0.083 0.562h355.661c3.386-6.91 7.654-12.823 12.753-17.902l58.801-58.801zM896.359 227.426l-250.882-250.898c-6.532-6.52-15.55-10.551-25.509-10.551s-18.977 4.032-25.51 10.552l-173.461 173.477c-6.52 6.532-10.551 15.55-10.551 25.509s4.032 18.977 10.552 25.51l250.897 250.881c5.777 5.767 13.751 9.336 22.558 9.343h1.277l172.394-6.999c16.556-0.781 29.782-14.007 30.56-30.491l0.003-0.072 6.983-172.394c0.017-0.385 0.026-0.836 0.026-1.289 0-8.814-3.568-16.795-9.337-22.578l0.001 0.001zM611.533 234.409c0.005 0 0.010 0 0.016 0 28.784 0 52.118 23.334 52.118 52.118s-23.334 52.118-52.118 52.118c-28.784 0-52.118-23.334-52.118-52.118 0-0.006 0-0.011 0-0.017v0.001c0.045-28.757 23.345-52.057 52.098-52.102h0.004zM611.533 308.625c12.213 0 22.113-9.9 22.113-22.113s-9.9-22.113-22.113-22.113c-12.213 0-22.113 9.9-22.113 22.113v0c0 0.009 0 0.021 0 0.032 0 12.216 9.898 22.12 22.112 22.129h0.001zM704.61 192.749c-0.005 0-0.010 0-0.016 0-28.784 0-52.118-23.334-52.118-52.118s23.334-52.118 52.118-52.118c28.784 0 52.118 23.334 52.118 52.118 0 0.006 0 0.011 0 0.017v-0.001c-0.036 28.761-23.342 52.066-52.099 52.102h-0.003zM704.61 118.534c-12.213 0-22.113 9.9-22.113 22.113s9.9 22.113 22.113 22.113c12.213 0 22.113-9.9 22.113-22.113v0c-0.009-12.209-9.904-22.104-22.112-22.113h-0.001zM745.169 300.701c-2.714 2.711-6.462 4.388-10.602 4.388s-7.888-1.677-10.602-4.388v0l-153.055-153.055c-2.934-2.746-4.762-6.641-4.762-10.964 0-8.286 6.717-15.003 15.003-15.003 4.323 0 8.219 1.828 10.956 4.754l153.063 153.063c2.715 2.713 4.395 6.461 4.395 10.602s-1.679 7.89-4.394 10.602v0z" />
<glyph unicode="&#xe916;" glyph-name="twitter1" d="M853.333 638.336c-23.461-10.528-50.681-18.295-79.187-21.949l-1.453-0.152c29.012 17.425 50.805 44.338 61.289 76.371l0.279 0.984c-25.546-15.418-55.279-27.172-86.953-33.575l-1.793-0.303c-25.598 27.258-61.867 44.237-102.101 44.237-77.287 0-139.942-62.651-139.947-139.938v0c-0.005-0.44-0.008-0.959-0.008-1.479 0-10.782 1.184-21.288 3.429-31.394l-0.179 0.959c-116.656 5.856-219.283 61.331-287.944 145.584l-0.568 0.72c-12.041-20.244-19.157-44.634-19.157-70.687 0-48.3 24.461-90.887 61.671-116.048l0.494-0.315c-23.283 0.585-44.982 6.839-63.933 17.426l0.701-0.359v-1.536c0.166-67.471 47.764-123.778 111.205-137.349l0.923-0.165c-10.68-2.929-22.943-4.612-35.599-4.612-0.385 0-0.769 0.002-1.153 0.005h0.059c-0.654-0.012-1.426-0.020-2.2-0.020-8.598 0-16.992 0.877-25.096 2.547l0.799-0.138c18.624-55.971 69.833-95.91 130.59-97.49l0.184-0.004c-47.251-37.242-107.642-59.733-173.286-59.733-0.084 0-0.168 0-0.253 0h0.013c-11.834 0.025-23.455 0.831-34.844 2.368l1.35-0.149c60.294-39.382 134.118-62.807 213.414-62.807 0.452 0 0.903 0.001 1.354 0.002h-0.070c0.814-0.006 1.776-0.009 2.74-0.009 218.487 0 395.605 177.119 395.605 395.605 0 0.933-0.003 1.866-0.010 2.798l0.001-0.143c0 6.187-0.213 12.16-0.512 18.091 27.709 19.987 51.002 44.081 69.509 71.657l0.635 1.005z" />
<glyph unicode="&#xe918;" glyph-name="Work-with-us" horiz-adv-x="1138" d="M1080.901 789.337h-246.518v75.855c-0.067 52.341-42.485 94.753-94.823 94.809h-341.352c-52.334-0.067-94.742-42.474-94.809-94.802v-75.861h-246.518c-31.417-0.011-56.881-25.482-56.881-56.901v0-422.101c0.118-24.561 15.715-45.448 37.53-53.417l0.397-0.127v-263.91c0.011-31.41 25.471-56.87 56.88-56.881h948.166c31.41 0.011 56.87 25.471 56.881 56.88v263.892c22.215 8.103 37.812 28.996 37.927 53.549v422.115c-0.011 31.41-25.471 56.87-56.88 56.881h-0.001zM341.327 865.191c0.011 31.41 25.471 56.87 56.88 56.881h341.347c31.402-0.022 56.851-25.478 56.862-56.88v-75.856h-37.888v75.855c-0.011 10.463-8.49 18.943-18.953 18.954h-341.367c-10.463-0.011-18.943-8.49-18.954-18.953v-75.856h-37.927zM720.601 789.337h-303.419v56.881h303.419zM1061.888-7.119c-0.011-10.463-8.49-18.943-18.953-18.954h-948.127c-10.463 0.011-18.943 8.49-18.954 18.953v257.392l417.182-57.545v-48.156c0.011-31.41 25.471-56.87 56.88-56.881h37.928c31.41 0.011 56.87 25.471 56.881 56.88v48.176l417.162 57.525zM606.818 144.591c-0.011-10.463-8.49-18.943-18.953-18.954h-37.928c-10.463 0.011-18.943 8.49-18.954 18.953v113.783c0.011 10.463 8.49 18.943 18.953 18.954h37.928c10.463-0.011 18.943-8.49 18.954-18.953v-0.001zM1099.855 310.335c0-0.009 0-0.020 0-0.031 0-9.532-7.036-17.42-16.197-18.755l-0.102-0.012-438.81-60.512v27.328c-0.011 31.41-25.471 56.87-56.88 56.881h-37.928c-31.41-0.011-56.87-25.471-56.881-56.88v-27.329l-438.79 60.512c-9.274 1.348-16.319 9.245-16.319 18.787 0 0.004 0 0.008 0 0.012v-0.001 422.101c0.011 10.463 8.49 18.943 18.953 18.954h1024.001c10.463-0.011 18.943-8.49 18.954-18.953v-0.001z" />
<glyph unicode="&#xe9c9;" glyph-name="sphere" d="M480 896c-265.096 0-480-214.904-480-480 0-265.098 214.904-480 480-480 265.098 0 480 214.902 480 480 0 265.096-214.902 480-480 480zM751.59 256c8.58 40.454 13.996 83.392 15.758 128h127.446c-3.336-44.196-13.624-87.114-30.68-128h-112.524zM208.41 576c-8.58-40.454-13.996-83.392-15.758-128h-127.444c3.336 44.194 13.622 87.114 30.678 128h112.524zM686.036 576c9.614-40.962 15.398-83.854 17.28-128h-191.316v128h174.036zM512 640v187.338c14.59-4.246 29.044-11.37 43.228-21.37 26.582-18.74 52.012-47.608 73.54-83.486 14.882-24.802 27.752-52.416 38.496-82.484h-155.264zM331.232 722.484c21.528 35.878 46.956 64.748 73.54 83.486 14.182 10 28.638 17.124 43.228 21.37v-187.34h-155.264c10.746 30.066 23.616 57.68 38.496 82.484zM448 576v-128h-191.314c1.88 44.146 7.666 87.038 17.278 128h174.036zM95.888 256c-17.056 40.886-27.342 83.804-30.678 128h127.444c1.762-44.608 7.178-87.546 15.758-128h-112.524zM256.686 384h191.314v-128h-174.036c-9.612 40.96-15.398 83.854-17.278 128zM448 192v-187.34c-14.588 4.246-29.044 11.372-43.228 21.37-26.584 18.74-52.014 47.61-73.54 83.486-14.882 24.804-27.75 52.418-38.498 82.484h155.266zM628.768 109.516c-21.528-35.876-46.958-64.746-73.54-83.486-14.184-9.998-28.638-17.124-43.228-21.37v187.34h155.266c-10.746-30.066-23.616-57.68-38.498-82.484zM512 256v128h191.314c-1.88-44.146-7.666-87.040-17.28-128h-174.034zM767.348 448c-1.762 44.608-7.178 87.546-15.758 128h112.524c17.056-40.886 27.344-83.806 30.68-128h-127.446zM830.658 640h-95.9c-18.638 58.762-44.376 110.294-75.316 151.428 42.536-20.34 81.058-47.616 114.714-81.272 21.48-21.478 40.362-44.938 56.502-70.156zM185.844 710.156c33.658 33.658 72.18 60.932 114.714 81.272-30.942-41.134-56.676-92.666-75.316-151.428h-95.898c16.138 25.218 35.022 48.678 56.5 70.156zM129.344 192h95.898c18.64-58.762 44.376-110.294 75.318-151.43-42.536 20.34-81.058 47.616-114.714 81.274-21.48 21.478-40.364 44.938-56.502 70.156zM774.156 121.844c-33.656-33.658-72.18-60.934-114.714-81.274 30.942 41.134 56.678 92.668 75.316 151.43h95.9c-16.14-25.218-35.022-48.678-56.502-70.156z" />
<glyph unicode="&#xea3c;" glyph-name="arrow-right2" d="M621.254 82.746l320 320c24.994 24.992 24.994 65.516 0 90.51l-320 320c-24.994 24.992-65.516 24.992-90.51 0-24.994-24.994-24.994-65.516 0-90.51l210.746-210.746h-613.49c-35.346 0-64-28.654-64-64s28.654-64 64-64h613.49l-210.746-210.746c-12.496-12.496-18.744-28.876-18.744-45.254s6.248-32.758 18.744-45.254c24.994-24.994 65.516-24.994 90.51 0z" />
<glyph unicode="&#xea3d;" glyph-name="arrow-down-right2" d="M146.746 722.746l530.742-530.746h-229.488c-35.346 0-64-28.654-64-64s28.654-64 64-64h384c25.884 0 49.222 15.594 59.126 39.508 3.284 7.924 4.84 16.242 4.838 24.492h0.036v384c0 35.346-28.654 64-64 64-35.348 0-64-28.654-64-64v-229.49l-530.746 530.744c-12.496 12.498-28.874 18.746-45.254 18.746s-32.758-6.248-45.254-18.746c-24.994-24.992-24.994-65.516 0-90.508z" />
<glyph unicode="&#xea40;" glyph-name="arrow-left2" d="M402.746 82.746l-320 320c-24.994 24.992-24.994 65.516 0 90.51l320 320c24.994 24.992 65.516 24.992 90.51 0 24.994-24.994 24.994-65.516 0-90.51l-210.746-210.746h613.49c35.346 0 64-28.654 64-64s-28.654-64-64-64h-613.49l210.746-210.746c12.496-12.496 18.744-28.876 18.744-45.254s-6.248-32.758-18.744-45.254c-24.994-24.994-65.516-24.994-90.51 0z" />
<glyph unicode="&#xea7a;" glyph-name="paragraph-justify" d="M0 896h1024v-128h-1024zM0 704h1024v-128h-1024zM0 512h1024v-128h-1024zM0 320h1024v-128h-1024zM0 128h1024v-128h-1024z" />
<glyph unicode="&#xea90;" glyph-name="facebook" d="M608 768h160v192h-160c-123.514 0-224-100.486-224-224v-96h-128v-192h128v-512h192v512h160l32 192h-192v96c0 17.346 14.654 32 32 32z" />
<glyph unicode="&#xea92;" glyph-name="instagram" d="M512 867.8c136.8 0 153-0.6 206.8-3 50-2.2 77-10.6 95-17.6 23.8-9.2 41-20.4 58.8-38.2 18-18 29-35 38.4-58.8 7-18 15.4-45.2 17.6-95 2.4-54 3-70.2 3-206.8s-0.6-153-3-206.8c-2.2-50-10.6-77-17.6-95-9.2-23.8-20.4-41-38.2-58.8-18-18-35-29-58.8-38.4-18-7-45.2-15.4-95-17.6-54-2.4-70.2-3-206.8-3s-153 0.6-206.8 3c-50 2.2-77 10.6-95 17.6-23.8 9.2-41 20.4-58.8 38.2-18 18-29 35-38.4 58.8-7 18-15.4 45.2-17.6 95-2.4 54-3 70.2-3 206.8s0.6 153 3 206.8c2.2 50 10.6 77 17.6 95 9.2 23.8 20.4 41 38.2 58.8 18 18 35 29 58.8 38.4 18 7 45.2 15.4 95 17.6 53.8 2.4 70 3 206.8 3zM512 960c-139 0-156.4-0.6-211-3-54.4-2.4-91.8-11.2-124.2-23.8-33.8-13.2-62.4-30.6-90.8-59.2-28.6-28.4-46-57-59.2-90.6-12.6-32.6-21.4-69.8-23.8-124.2-2.4-54.8-3-72.2-3-211.2s0.6-156.4 3-211c2.4-54.4 11.2-91.8 23.8-124.2 13.2-33.8 30.6-62.4 59.2-90.8 28.4-28.4 57-46 90.6-59 32.6-12.6 69.8-21.4 124.2-23.8 54.6-2.4 72-3 211-3s156.4 0.6 211 3c54.4 2.4 91.8 11.2 124.2 23.8 33.6 13 62.2 30.6 90.6 59s46 57 59 90.6c12.6 32.6 21.4 69.8 23.8 124.2 2.4 54.6 3 72 3 211s-0.6 156.4-3 211c-2.4 54.4-11.2 91.8-23.8 124.2-12.6 34-30 62.6-58.6 91-28.4 28.4-57 46-90.6 59-32.6 12.6-69.8 21.4-124.2 23.8-54.8 2.6-72.2 3.2-211.2 3.2v0zM512 711c-145.2 0-263-117.8-263-263s117.8-263 263-263 263 117.8 263 263c0 145.2-117.8 263-263 263zM512 277.4c-94.2 0-170.6 76.4-170.6 170.6s76.4 170.6 170.6 170.6c94.2 0 170.6-76.4 170.6-170.6s-76.4-170.6-170.6-170.6zM846.8 721.4c0-33.91-27.49-61.4-61.4-61.4s-61.4 27.49-61.4 61.4c0 33.91 27.49 61.4 61.4 61.4s61.4-27.49 61.4-61.4z" />
<glyph unicode="&#xea96;" glyph-name="twitter" d="M1024 733.6c-37.6-16.8-78.2-28-120.6-33 43.4 26 76.6 67.2 92.4 116.2-40.6-24-85.6-41.6-133.4-51-38.4 40.8-93 66.2-153.4 66.2-116 0-210-94-210-210 0-16.4 1.8-32.4 5.4-47.8-174.6 8.8-329.4 92.4-433 219.6-18-31-28.4-67.2-28.4-105.6 0-72.8 37-137.2 93.4-174.8-34.4 1-66.8 10.6-95.2 26.2 0-0.8 0-1.8 0-2.6 0-101.8 72.4-186.8 168.6-206-17.6-4.8-36.2-7.4-55.4-7.4-13.6 0-26.6 1.4-39.6 3.8 26.8-83.4 104.4-144.2 196.2-146-72-56.4-162.4-90-261-90-17 0-33.6 1-50.2 3 93.2-59.8 203.6-94.4 322.2-94.4 386.4 0 597.8 320.2 597.8 597.8 0 9.2-0.2 18.2-0.6 27.2 41 29.4 76.6 66.4 104.8 108.6z" />
<glyph unicode="&#xeac9;" glyph-name="linkedin" d="M928 960h-832c-52.8 0-96-43.2-96-96v-832c0-52.8 43.2-96 96-96h832c52.8 0 96 43.2 96 96v832c0 52.8-43.2 96-96 96zM384 128h-128v448h128v-448zM320 640c-35.4 0-64 28.6-64 64s28.6 64 64 64c35.4 0 64-28.6 64-64s-28.6-64-64-64zM832 128h-128v256c0 35.4-28.6 64-64 64s-64-28.6-64-64v-256h-128v448h128v-79.4c26.4 36.2 66.8 79.4 112 79.4 79.6 0 144-71.6 144-160v-288z" />
</font>
</defs>
</svg>
